<mxfile host="Electron" agent="Mozilla/5.0 (Windows NT 10.0; Win64; x64) AppleWebKit/537.36 (KHTML, like Gecko) draw.io/26.0.4 Chrome/128.0.6613.186 Electron/32.2.5 Safari/537.36" version="26.0.4">
  <diagram name="Page-1" id="aee0IWWUWlr4mIRgVz0w">
    <mxGraphModel dx="1900" dy="621" grid="1" gridSize="10" guides="1" tooltips="1" connect="1" arrows="1" fold="1" page="1" pageScale="1" pageWidth="850" pageHeight="1100" math="0" shadow="0">
      <root>
        <mxCell id="0" />
        <mxCell id="1" parent="0" />
        <mxCell id="58HArxBB9DVCEFORheRK-1" value="" style="shape=umlLifeline;perimeter=lifelinePerimeter;whiteSpace=wrap;html=1;container=1;dropTarget=0;collapsible=0;recursiveResize=0;outlineConnect=0;portConstraint=eastwest;newEdgeStyle={&quot;curved&quot;:0,&quot;rounded&quot;:0};participant=umlActor;" vertex="1" parent="1">
          <mxGeometry x="-20" y="40" width="20" height="690" as="geometry" />
        </mxCell>
        <mxCell id="58HArxBB9DVCEFORheRK-2" value="" style="html=1;points=[[0,0,0,0,5],[0,1,0,0,-5],[1,0,0,0,5],[1,1,0,0,-5]];perimeter=orthogonalPerimeter;outlineConnect=0;targetShapes=umlLifeline;portConstraint=eastwest;newEdgeStyle={&quot;curved&quot;:0,&quot;rounded&quot;:0};" vertex="1" parent="58HArxBB9DVCEFORheRK-1">
          <mxGeometry x="4.5" y="91" width="10" height="399" as="geometry" />
        </mxCell>
        <mxCell id="58HArxBB9DVCEFORheRK-3" value="Giao diện" style="shape=umlLifeline;perimeter=lifelinePerimeter;whiteSpace=wrap;html=1;container=1;dropTarget=0;collapsible=0;recursiveResize=0;outlineConnect=0;portConstraint=eastwest;newEdgeStyle={&quot;curved&quot;:0,&quot;rounded&quot;:0};" vertex="1" parent="1">
          <mxGeometry x="120" y="40" width="100" height="840" as="geometry" />
        </mxCell>
        <mxCell id="58HArxBB9DVCEFORheRK-4" value="" style="html=1;points=[[0,0,0,0,5],[0,1,0,0,-5],[1,0,0,0,5],[1,1,0,0,-5]];perimeter=orthogonalPerimeter;outlineConnect=0;targetShapes=umlLifeline;portConstraint=eastwest;newEdgeStyle={&quot;curved&quot;:0,&quot;rounded&quot;:0};" vertex="1" parent="58HArxBB9DVCEFORheRK-3">
          <mxGeometry x="45" y="97" width="10" height="703" as="geometry" />
        </mxCell>
        <mxCell id="58HArxBB9DVCEFORheRK-5" value=":Khách Hàng" style="shape=umlLifeline;perimeter=lifelinePerimeter;whiteSpace=wrap;html=1;container=1;dropTarget=0;collapsible=0;recursiveResize=0;outlineConnect=0;portConstraint=eastwest;newEdgeStyle={&quot;curved&quot;:0,&quot;rounded&quot;:0};" vertex="1" parent="1">
          <mxGeometry x="480" y="40" width="100" height="680" as="geometry" />
        </mxCell>
        <mxCell id="58HArxBB9DVCEFORheRK-6" value="" style="html=1;points=[[0,0,0,0,5],[0,1,0,0,-5],[1,0,0,0,5],[1,1,0,0,-5]];perimeter=orthogonalPerimeter;outlineConnect=0;targetShapes=umlLifeline;portConstraint=eastwest;newEdgeStyle={&quot;curved&quot;:0,&quot;rounded&quot;:0};" vertex="1" parent="58HArxBB9DVCEFORheRK-5">
          <mxGeometry x="45" y="230" width="10" height="80" as="geometry" />
        </mxCell>
        <mxCell id="58HArxBB9DVCEFORheRK-7" value="khách hàng" style="text;html=1;align=center;verticalAlign=middle;resizable=0;points=[];autosize=1;strokeColor=none;fillColor=none;" vertex="1" parent="1">
          <mxGeometry x="-55" y="78" width="90" height="30" as="geometry" />
        </mxCell>
        <mxCell id="58HArxBB9DVCEFORheRK-8" value="Database" style="shape=umlLifeline;perimeter=lifelinePerimeter;whiteSpace=wrap;html=1;container=1;dropTarget=0;collapsible=0;recursiveResize=0;outlineConnect=0;portConstraint=eastwest;newEdgeStyle={&quot;curved&quot;:0,&quot;rounded&quot;:0};" vertex="1" parent="1">
          <mxGeometry x="750" y="40" width="100" height="680" as="geometry" />
        </mxCell>
        <mxCell id="58HArxBB9DVCEFORheRK-9" value="Controller" style="shape=umlLifeline;perimeter=lifelinePerimeter;whiteSpace=wrap;html=1;container=1;dropTarget=0;collapsible=0;recursiveResize=0;outlineConnect=0;portConstraint=eastwest;newEdgeStyle={&quot;curved&quot;:0,&quot;rounded&quot;:0};" vertex="1" parent="1">
          <mxGeometry x="300" y="40" width="100" height="680" as="geometry" />
        </mxCell>
        <mxCell id="58HArxBB9DVCEFORheRK-10" value="Chon chức năng giỏ hàng" style="html=1;verticalAlign=bottom;endArrow=block;curved=0;rounded=0;" edge="1" parent="1" source="58HArxBB9DVCEFORheRK-2">
          <mxGeometry width="80" relative="1" as="geometry">
            <mxPoint x="-10.5" y="137" as="sourcePoint" />
            <mxPoint x="169.5" y="137" as="targetPoint" />
          </mxGeometry>
        </mxCell>
        <mxCell id="58HArxBB9DVCEFORheRK-11" value="kiểm tra đăng nhập" style="html=1;verticalAlign=bottom;endArrow=block;curved=0;rounded=0;" edge="1" parent="1">
          <mxGeometry width="80" relative="1" as="geometry">
            <mxPoint x="171" y="270" as="sourcePoint" />
            <mxPoint x="351" y="270" as="targetPoint" />
          </mxGeometry>
        </mxCell>
        <mxCell id="58HArxBB9DVCEFORheRK-12" value="kiểm tra tài khoản" style="html=1;verticalAlign=bottom;endArrow=block;curved=0;rounded=0;" edge="1" parent="1">
          <mxGeometry width="80" relative="1" as="geometry">
            <mxPoint x="351" y="270" as="sourcePoint" />
            <mxPoint x="531" y="270" as="targetPoint" />
          </mxGeometry>
        </mxCell>
        <mxCell id="58HArxBB9DVCEFORheRK-13" value="thực thi truy vấn" style="html=1;verticalAlign=bottom;endArrow=block;curved=0;rounded=0;" edge="1" parent="1" target="58HArxBB9DVCEFORheRK-8">
          <mxGeometry width="80" relative="1" as="geometry">
            <mxPoint x="531" y="270" as="sourcePoint" />
            <mxPoint x="711" y="270" as="targetPoint" />
          </mxGeometry>
        </mxCell>
        <mxCell id="58HArxBB9DVCEFORheRK-14" value="return" style="html=1;verticalAlign=bottom;endArrow=open;dashed=1;endSize=8;curved=0;rounded=0;" edge="1" parent="1" source="58HArxBB9DVCEFORheRK-8">
          <mxGeometry relative="1" as="geometry">
            <mxPoint x="711" y="343" as="sourcePoint" />
            <mxPoint x="530.5" y="343" as="targetPoint" />
          </mxGeometry>
        </mxCell>
        <mxCell id="58HArxBB9DVCEFORheRK-15" value="alt" style="shape=umlFrame;whiteSpace=wrap;html=1;pointerEvents=0;" vertex="1" parent="1">
          <mxGeometry x="-180" y="370" width="1070" height="490" as="geometry" />
        </mxCell>
        <mxCell id="58HArxBB9DVCEFORheRK-16" value="&lt;br&gt;&lt;span style=&quot;color: rgb(0, 0, 0); background-color: rgb(236, 236, 236); float: none; display: inline !important;&quot;&gt;Đã đăng nhập&lt;/span&gt;" style="text;html=1;align=center;verticalAlign=middle;resizable=0;points=[];autosize=1;strokeColor=none;fillColor=none;" vertex="1" parent="1">
          <mxGeometry x="-180" y="390" width="100" height="40" as="geometry" />
        </mxCell>
        <mxCell id="58HArxBB9DVCEFORheRK-17" value="return" style="html=1;verticalAlign=bottom;endArrow=open;dashed=1;endSize=8;curved=0;rounded=0;" edge="1" parent="1">
          <mxGeometry relative="1" as="geometry">
            <mxPoint x="530.5" y="343" as="sourcePoint" />
            <mxPoint x="350" y="343" as="targetPoint" />
          </mxGeometry>
        </mxCell>
        <mxCell id="58HArxBB9DVCEFORheRK-18" value="return" style="html=1;verticalAlign=bottom;endArrow=open;dashed=1;endSize=8;curved=0;rounded=0;" edge="1" parent="1">
          <mxGeometry relative="1" as="geometry">
            <mxPoint x="350" y="345" as="sourcePoint" />
            <mxPoint x="169.5" y="345" as="targetPoint" />
          </mxGeometry>
        </mxCell>
        <mxCell id="58HArxBB9DVCEFORheRK-20" value="Chọn thanh toán" style="html=1;verticalAlign=bottom;endArrow=block;curved=0;rounded=0;" edge="1" parent="1">
          <mxGeometry width="80" relative="1" as="geometry">
            <mxPoint x="-10" y="481" as="sourcePoint" />
            <mxPoint x="169.5" y="481" as="targetPoint" />
          </mxGeometry>
        </mxCell>
        <mxCell id="58HArxBB9DVCEFORheRK-21" value="Gửi yêu cầu" style="html=1;verticalAlign=bottom;endArrow=block;curved=0;rounded=0;" edge="1" parent="1">
          <mxGeometry width="80" relative="1" as="geometry">
            <mxPoint x="160" y="481" as="sourcePoint" />
            <mxPoint x="349.5" y="481" as="targetPoint" />
          </mxGeometry>
        </mxCell>
        <mxCell id="58HArxBB9DVCEFORheRK-22" value="" style="html=1;verticalAlign=bottom;endArrow=block;curved=0;rounded=0;" edge="1" parent="1">
          <mxGeometry x="-0.4366" y="10" width="80" relative="1" as="geometry">
            <mxPoint x="350" y="481" as="sourcePoint" />
            <mxPoint x="669.5" y="481" as="targetPoint" />
            <mxPoint as="offset" />
          </mxGeometry>
        </mxCell>
        <mxCell id="58HArxBB9DVCEFORheRK-23" value=":Đơn hàng" style="shape=umlLifeline;perimeter=lifelinePerimeter;whiteSpace=wrap;html=1;container=1;dropTarget=0;collapsible=0;recursiveResize=0;outlineConnect=0;portConstraint=eastwest;newEdgeStyle={&quot;curved&quot;:0,&quot;rounded&quot;:0};" vertex="1" parent="1">
          <mxGeometry x="620" y="40" width="100" height="690" as="geometry" />
        </mxCell>
        <mxCell id="58HArxBB9DVCEFORheRK-24" value="" style="html=1;points=[[0,0,0,0,5],[0,1,0,0,-5],[1,0,0,0,5],[1,1,0,0,-5]];perimeter=orthogonalPerimeter;outlineConnect=0;targetShapes=umlLifeline;portConstraint=eastwest;newEdgeStyle={&quot;curved&quot;:0,&quot;rounded&quot;:0};" vertex="1" parent="58HArxBB9DVCEFORheRK-23">
          <mxGeometry x="45" y="415" width="10" height="72" as="geometry" />
        </mxCell>
        <mxCell id="58HArxBB9DVCEFORheRK-25" value="thực thi truy vấn" style="html=1;verticalAlign=bottom;endArrow=block;curved=0;rounded=0;" edge="1" parent="1" target="58HArxBB9DVCEFORheRK-8">
          <mxGeometry width="80" relative="1" as="geometry">
            <mxPoint x="670" y="458" as="sourcePoint" />
            <mxPoint x="860" y="458" as="targetPoint" />
          </mxGeometry>
        </mxCell>
        <mxCell id="58HArxBB9DVCEFORheRK-26" value="return" style="html=1;verticalAlign=bottom;endArrow=open;dashed=1;endSize=8;curved=0;rounded=0;" edge="1" parent="1" target="58HArxBB9DVCEFORheRK-23">
          <mxGeometry relative="1" as="geometry">
            <mxPoint x="800.5" y="520" as="sourcePoint" />
            <mxPoint x="620" y="520" as="targetPoint" />
          </mxGeometry>
        </mxCell>
        <mxCell id="58HArxBB9DVCEFORheRK-27" value="return" style="html=1;verticalAlign=bottom;endArrow=open;dashed=1;endSize=8;curved=0;rounded=0;" edge="1" parent="1" target="58HArxBB9DVCEFORheRK-9">
          <mxGeometry x="0.0893" relative="1" as="geometry">
            <mxPoint x="680" y="520" as="sourcePoint" />
            <mxPoint x="369.5" y="520" as="targetPoint" />
            <mxPoint as="offset" />
          </mxGeometry>
        </mxCell>
        <mxCell id="58HArxBB9DVCEFORheRK-28" value="Kiểm tra thanh toán" style="text;html=1;align=center;verticalAlign=middle;resizable=0;points=[];autosize=1;strokeColor=none;fillColor=none;" vertex="1" parent="1">
          <mxGeometry x="385" y="428" width="130" height="30" as="geometry" />
        </mxCell>
        <mxCell id="58HArxBB9DVCEFORheRK-29" value="return" style="html=1;verticalAlign=bottom;endArrow=open;dashed=1;endSize=8;curved=0;rounded=0;" edge="1" parent="1">
          <mxGeometry relative="1" as="geometry">
            <mxPoint x="360" y="520" as="sourcePoint" />
            <mxPoint x="169.5" y="520" as="targetPoint" />
          </mxGeometry>
        </mxCell>
        <mxCell id="58HArxBB9DVCEFORheRK-31" value="" style="endArrow=none;dashed=1;html=1;rounded=0;exitX=0.002;exitY=0.779;exitDx=0;exitDy=0;exitPerimeter=0;entryX=1.002;entryY=0.781;entryDx=0;entryDy=0;entryPerimeter=0;" edge="1" parent="1">
          <mxGeometry width="50" height="50" relative="1" as="geometry">
            <mxPoint x="-177.85999999999967" y="735.0699999999999" as="sourcePoint" />
            <mxPoint x="892.1400000000003" y="735.73" as="targetPoint" />
          </mxGeometry>
        </mxCell>
        <mxCell id="58HArxBB9DVCEFORheRK-32" value="&lt;br&gt;&lt;span style=&quot;color: rgb(0, 0, 0); background-color: rgb(236, 236, 236); float: none; display: inline !important;&quot;&gt;Chưa đăng nhập&lt;/span&gt;" style="text;html=1;align=center;verticalAlign=middle;resizable=0;points=[];autosize=1;strokeColor=none;fillColor=none;" vertex="1" parent="1">
          <mxGeometry x="-180" y="736" width="110" height="40" as="geometry" />
        </mxCell>
        <mxCell id="58HArxBB9DVCEFORheRK-33" value="" style="html=1;points=[[0,0,0,0,5],[0,1,0,0,-5],[1,0,0,0,5],[1,1,0,0,-5]];perimeter=orthogonalPerimeter;outlineConnect=0;targetShapes=umlLifeline;portConstraint=eastwest;newEdgeStyle={&quot;curved&quot;:0,&quot;rounded&quot;:0};" vertex="1" parent="1">
          <mxGeometry x="345" y="270" width="10" height="250" as="geometry" />
        </mxCell>
        <mxCell id="58HArxBB9DVCEFORheRK-34" value="" style="html=1;points=[[0,0,0,0,5],[0,1,0,0,-5],[1,0,0,0,5],[1,1,0,0,-5]];perimeter=orthogonalPerimeter;outlineConnect=0;targetShapes=umlLifeline;portConstraint=eastwest;newEdgeStyle={&quot;curved&quot;:0,&quot;rounded&quot;:0};" vertex="1" parent="1">
          <mxGeometry x="790" y="450" width="10" height="80" as="geometry" />
        </mxCell>
        <mxCell id="58HArxBB9DVCEFORheRK-35" value="" style="html=1;points=[[0,0,0,0,5],[0,1,0,0,-5],[1,0,0,0,5],[1,1,0,0,-5]];perimeter=orthogonalPerimeter;outlineConnect=0;targetShapes=umlLifeline;portConstraint=eastwest;newEdgeStyle={&quot;curved&quot;:0,&quot;rounded&quot;:0};" vertex="1" parent="1">
          <mxGeometry x="170" y="789" width="10" height="40" as="geometry" />
        </mxCell>
        <mxCell id="58HArxBB9DVCEFORheRK-36" value="hiển thị trang đăng nhập" style="html=1;align=left;spacingLeft=2;endArrow=block;rounded=0;edgeStyle=orthogonalEdgeStyle;curved=0;rounded=0;" edge="1" parent="1" target="58HArxBB9DVCEFORheRK-35">
          <mxGeometry relative="1" as="geometry">
            <mxPoint x="175" y="769" as="sourcePoint" />
            <Array as="points">
              <mxPoint x="205" y="799" />
            </Array>
          </mxGeometry>
        </mxCell>
        <mxCell id="58HArxBB9DVCEFORheRK-37" value="" style="html=1;points=[[0,0,0,0,5],[0,1,0,0,-5],[1,0,0,0,5],[1,1,0,0,-5]];perimeter=orthogonalPerimeter;outlineConnect=0;targetShapes=umlLifeline;portConstraint=eastwest;newEdgeStyle={&quot;curved&quot;:0,&quot;rounded&quot;:0};" vertex="1" parent="1">
          <mxGeometry x="170" y="576" width="10" height="40" as="geometry" />
        </mxCell>
        <mxCell id="58HArxBB9DVCEFORheRK-38" value="Thông báo thanh toán&lt;div&gt;thành công&lt;/div&gt;" style="html=1;align=left;spacingLeft=2;endArrow=block;rounded=0;edgeStyle=orthogonalEdgeStyle;curved=0;rounded=0;" edge="1" parent="1" target="58HArxBB9DVCEFORheRK-37">
          <mxGeometry relative="1" as="geometry">
            <mxPoint x="175" y="556" as="sourcePoint" />
            <Array as="points">
              <mxPoint x="205" y="586" />
            </Array>
          </mxGeometry>
        </mxCell>
        <mxCell id="58HArxBB9DVCEFORheRK-39" value="" style="html=1;points=[[0,0,0,0,5],[0,1,0,0,-5],[1,0,0,0,5],[1,1,0,0,-5]];perimeter=orthogonalPerimeter;outlineConnect=0;targetShapes=umlLifeline;portConstraint=eastwest;newEdgeStyle={&quot;curved&quot;:0,&quot;rounded&quot;:0};" vertex="1" parent="1">
          <mxGeometry x="800" y="280" height="80" as="geometry" />
        </mxCell>
        <mxCell id="58HArxBB9DVCEFORheRK-40" value="" style="html=1;points=[[0,0,0,0,5],[0,1,0,0,-5],[1,0,0,0,5],[1,1,0,0,-5]];perimeter=orthogonalPerimeter;outlineConnect=0;targetShapes=umlLifeline;portConstraint=eastwest;newEdgeStyle={&quot;curved&quot;:0,&quot;rounded&quot;:0};" vertex="1" parent="1">
          <mxGeometry x="790" y="270" width="10" height="80" as="geometry" />
        </mxCell>
        <mxCell id="58HArxBB9DVCEFORheRK-41" value="Chọn sản phẩm trong giỏ hàng" style="html=1;verticalAlign=bottom;endArrow=block;curved=0;rounded=0;" edge="1" parent="1">
          <mxGeometry width="80" relative="1" as="geometry">
            <mxPoint x="-10" y="451" as="sourcePoint" />
            <mxPoint x="170" y="451" as="targetPoint" />
          </mxGeometry>
        </mxCell>
        <mxCell id="58HArxBB9DVCEFORheRK-43" value="alt" style="shape=umlFrame;whiteSpace=wrap;html=1;pointerEvents=0;" vertex="1" parent="1">
          <mxGeometry x="-30" y="536" width="880" height="194" as="geometry" />
        </mxCell>
        <mxCell id="58HArxBB9DVCEFORheRK-44" value="" style="endArrow=none;dashed=1;html=1;rounded=0;exitX=0.002;exitY=0.779;exitDx=0;exitDy=0;exitPerimeter=0;entryX=0.998;entryY=0.536;entryDx=0;entryDy=0;entryPerimeter=0;" edge="1" parent="1" target="58HArxBB9DVCEFORheRK-43">
          <mxGeometry width="50" height="50" relative="1" as="geometry">
            <mxPoint x="-29.99999999999966" y="640" as="sourcePoint" />
            <mxPoint x="1040.0000000000005" y="640.6600000000001" as="targetPoint" />
          </mxGeometry>
        </mxCell>
        <mxCell id="58HArxBB9DVCEFORheRK-45" value="Thanh toán thành công" style="text;html=1;align=center;verticalAlign=middle;resizable=0;points=[];autosize=1;strokeColor=none;fillColor=none;" vertex="1" parent="1">
          <mxGeometry y="570" width="150" height="30" as="geometry" />
        </mxCell>
        <mxCell id="58HArxBB9DVCEFORheRK-46" value="thanh toán thất bại" style="text;html=1;align=center;verticalAlign=middle;resizable=0;points=[];autosize=1;strokeColor=none;fillColor=none;" vertex="1" parent="1">
          <mxGeometry y="660" width="120" height="30" as="geometry" />
        </mxCell>
        <mxCell id="58HArxBB9DVCEFORheRK-48" value="" style="html=1;points=[[0,0,0,0,5],[0,1,0,0,-5],[1,0,0,0,5],[1,1,0,0,-5]];perimeter=orthogonalPerimeter;outlineConnect=0;targetShapes=umlLifeline;portConstraint=eastwest;newEdgeStyle={&quot;curved&quot;:0,&quot;rounded&quot;:0};" vertex="1" parent="1">
          <mxGeometry x="170" y="680" width="10" height="40" as="geometry" />
        </mxCell>
        <mxCell id="58HArxBB9DVCEFORheRK-49" value="Thông báo thanh toán&lt;div&gt;thất bại&lt;/div&gt;" style="html=1;align=left;spacingLeft=2;endArrow=block;rounded=0;edgeStyle=orthogonalEdgeStyle;curved=0;rounded=0;" edge="1" parent="1" target="58HArxBB9DVCEFORheRK-48">
          <mxGeometry relative="1" as="geometry">
            <mxPoint x="175" y="660" as="sourcePoint" />
            <Array as="points">
              <mxPoint x="205" y="690" />
            </Array>
          </mxGeometry>
        </mxCell>
        <mxCell id="58HArxBB9DVCEFORheRK-52" value="" style="html=1;points=[[0,0,0,0,5],[0,1,0,0,-5],[1,0,0,0,5],[1,1,0,0,-5]];perimeter=orthogonalPerimeter;outlineConnect=0;targetShapes=umlLifeline;portConstraint=eastwest;newEdgeStyle={&quot;curved&quot;:0,&quot;rounded&quot;:0};" vertex="1" parent="1">
          <mxGeometry x="170" y="400" width="10" height="40" as="geometry" />
        </mxCell>
        <mxCell id="58HArxBB9DVCEFORheRK-53" value="Hiển thị giỏ hàng" style="html=1;align=left;spacingLeft=2;endArrow=block;rounded=0;edgeStyle=orthogonalEdgeStyle;curved=0;rounded=0;" edge="1" parent="1" target="58HArxBB9DVCEFORheRK-52">
          <mxGeometry relative="1" as="geometry">
            <mxPoint x="175" y="380" as="sourcePoint" />
            <Array as="points">
              <mxPoint x="205" y="410" />
            </Array>
          </mxGeometry>
        </mxCell>
      </root>
    </mxGraphModel>
  </diagram>
</mxfile>
